<?xml version="1.0" encoding="UTF-8" standalone="no"?>
<!-- Created with Inkscape (http://www.inkscape.org/) -->

<svg
   width="4096"
   height="4096"
   viewBox="0 0 1083.7333 1083.7333"
   version="1.1"
   id="svg1"
   inkscape:version="1.3.2 (091e20ef0f, 2023-11-25)"
   sodipodi:docname="favicon.svg"
   xmlns:inkscape="http://www.inkscape.org/namespaces/inkscape"
   xmlns:sodipodi="http://sodipodi.sourceforge.net/DTD/sodipodi-0.dtd"
   xmlns="http://www.w3.org/2000/svg"
   xmlns:svg="http://www.w3.org/2000/svg">
  <sodipodi:namedview
     id="namedview1"
     pagecolor="#000000"
     bordercolor="#eeeeee"
     borderopacity="1"
     inkscape:showpageshadow="0"
     inkscape:pageopacity="0"
     inkscape:pagecheckerboard="true"
     inkscape:deskcolor="#505050"
     inkscape:document-units="mm"
     inkscape:zoom="0.19662955"
     inkscape:cx="1576.5687"
     inkscape:cy="2372.4817"
     inkscape:window-width="2560"
     inkscape:window-height="1440"
     inkscape:window-x="0"
     inkscape:window-y="0"
     inkscape:window-maximized="1"
     inkscape:current-layer="layer1" />
  <defs
     id="defs1" />
  <g
     inkscape:groupmode="layer"
     id="layer2"
     inkscape:label="Background">
    <rect
       style="fill:#f0f0f0;fill-opacity:1;stroke-width:0.264583"
       id="rect1"
       width="1083.7333"
       height="1083.7333"
       x="0.93035132"
       y="1.1248316"
       rx="211.66667"
       ry="211.66667" />
    <rect
       style="fill:#f0f0f0;fill-opacity:1;stroke-width:0.264583"
       id="rect2"
       width="6.9171886"
       height="1.1931626"
       x="-64.961655"
       y="-76.409698"
       rx="211.66666"
       ry="1.1931626" />
  </g>
  <g
     inkscape:label="N"
     inkscape:groupmode="layer"
     id="layer1">
    <path
       id="path6"
       style="fill:#443d96;fill-opacity:1;fill-rule:nonzero;stroke-width:2.50628"
       d="m 872.90039,94.486328 c -7.69072,0.413973 -14.88116,3.584248 -21.6113,7.106042 -7.98321,4.31711 -15.70872,9.19641 -22.7012,14.99747 -8.53975,11.35127 -14.48324,24.3649 -19.88072,37.42478 -8.43258,20.55127 -14.69582,41.93796 -19.73642,63.55724 -5.48649,23.88636 -9.03171,48.16647 -12.06425,72.47151 -3.0055,24.32791 -5.60679,48.70316 -8.26602,73.07071 -3.33126,30.7338 -6.61632,61.47258 -9.89439,92.21209 -20.97601,4.7131 -42.28442,7.84157 -63.7131,9.48019 -14.07918,1.24011 -28.19023,2.00459 -42.33143,1.85101 -16.88042,0.003 -33.74222,-0.76656 -50.55508,-2.1769 -13.97447,-31.67217 -27.68641,-63.46004 -41.59207,-95.16201 -6.53979,-15.04809 -13.09301,-30.09947 -18.93599,-45.43557 -5.21396,-13.90574 -9.72338,-28.09463 -12.38009,-42.72769 -2.16371,-11.12249 -4.1458,-22.28068 -6.43693,-33.37759 -2.0574,-10.56029 -3.95161,-21.1788 -4.77972,-31.92561 -0.43549,-4.86753 -1.41617,-9.89696 -4.32243,-13.94378 -1.12291,-1.50337 -2.37024,-3.00186 -3.99808,-3.97658 -1.41622,-0.84498 -3.19462,-0.84639 -4.67696,-0.16929 -1.89831,0.77989 -3.65126,1.86938 -5.5194,2.71861 -5.68153,2.84098 -11.36345,5.66293 -17.04973,8.4956 -2.19536,5.15219 -2.79264,10.81033 -3.02611,16.3398 -0.52953,8.34918 -0.689,16.71875 -0.95401,25.08014 -0.67014,30.18483 -0.89995,60.37705 -1.2189,90.56703 -0.34545,35.01026 -0.71898,70.02335 -1.77364,105.02085 -28.3334,-4.972 -56.80827,-9.66676 -85.57385,-11.11032 -19.22412,-1.1506 -38.56567,-0.53478 -57.66778,1.92094 -13.06219,1.7745 -26.00993,4.46722 -38.63916,8.25382 -6.96485,2.15529 -13.67654,5.0504 -20.22018,8.25153 -13.57064,6.42757 -26.90703,13.33122 -40.29708,20.12666 -6.02238,3.28091 -11.85815,6.88756 -17.74729,10.40173 -7.61654,4.652 -15.00589,9.71539 -21.74993,15.57465 -15.41798,12.72207 -29.66013,26.93365 -41.86389,42.78542 -15.82127,20.35475 -28.8514,42.74003 -40.15212,65.87669 -4.32253,9.23607 -8.24285,18.65374 -12.196035,28.05272 -6.776545,16.58251 -12.206274,33.68956 -16.887365,50.97257 -9.351251,34.94397 -14.85325,70.90741 -16.562005,107.03767 -0.409851,10.42255 -0.008,20.8812 1.39296,31.2203 0.692941,5.51966 1.280231,11.05553 2.112734,16.55583 0.907051,5.01542 2.131038,9.93623 3.149146,14.91602 2.778305,12.88707 5.894441,25.77348 10.84359,38.02091 7.868717,20.35084 19.087825,39.52607 33.832405,55.67211 8.67889,9.71546 18.67896,18.22887 29.57974,25.35567 4.83984,3.2644 9.58103,6.69552 14.64961,9.60016 7.54368,3.78084 15.04345,7.66481 22.77655,11.0491 6.86521,3.00433 13.96117,5.44624 21.18793,7.41684 22.21677,6.3462 45.64849,8.9821 68.66843,6.3711 9.14184,-1.0297 18.05989,-3.3993 26.90166,-5.8632 3.164,-0.9445 6.00344,-2.6792 9.00271,-4.0216 17.36798,-8.29271 35.00663,-16.18462 51.32389,-26.46284 14.98143,-9.38644 27.93281,-21.75553 39.01425,-35.47039 10.38174,-12.84423 19.16477,-26.92365 26.66014,-41.62519 3.57892,-6.97599 6.86584,-14.09363 10.15368,-21.2091 2.96855,-6.48209 5.40073,-13.19128 8.02614,-19.81482 5.2723,-13.54586 10.23963,-27.22597 14.50719,-41.11472 9.17153,-28.84628 16.37084,-58.27056 23.16642,-87.75322 3.75558,-16.74901 6.70294,-33.67117 8.99466,-50.68253 3.02061,-21.0991 5.75078,-42.23815 8.1711,-63.41573 4.56885,-41.8971 8.23264,-83.9021 10.74449,-125.97668 18.50947,2.80457 37.06654,5.34493 55.70703,7.10352 22.92185,48.95186 48.17649,96.76322 72.60088,144.96767 14.35343,28.22426 28.36272,56.71876 40.61396,85.89561 8.8725,21.31436 16.33929,43.2098 23.64477,65.12206 4.28108,12.6669 8.50133,25.37096 13.54666,37.75978 3.16927,7.64904 6.80086,15.24172 12.0923,21.67379 1.948,2.09884 4.15082,3.93508 6.22994,5.89945 13.06797,-7.56555 26.69102,-14.18437 39.34571,-22.44727 2.12553,-1.90529 2.50126,-4.98043 2.27734,-7.67578 0.36316,-12.8036 -0.27285,-25.60961 -0.0336,-38.41445 0.0766,-40.70241 0.58844,-81.4231 2.89885,-122.06797 3.90422,-65.11976 9.45751,-130.18142 16.7457,-195.01741 0.0926,-0.83013 0.18516,-1.66027 0.27774,-2.4904 10.95044,-4.80037 21.68086,-10.09551 32.1998,-15.77666 15.61354,-8.75328 31.567,-16.95578 46.54629,-26.78637 12.97446,-9.17454 24.84023,-19.86357 35.68986,-31.45945 11.43977,-12.32244 21.55676,-25.86811 30.10937,-40.34446 12.72574,-21.39518 22.22553,-44.7865 27.35327,-69.17271 3.20944,-15.26343 4.43326,-30.90877 4.0924,-46.49213 -0.53997,-23.30977 -5.09444,-46.65089 -14.49513,-68.04169 -6.03731,-13.85942 -13.68791,-27.15402 -23.79149,-38.46941 -6.9024,-7.82028 -14.94623,-14.57118 -23.57842,-20.40076 -8.39799,-5.62494 -17.225,-10.871574 -26.95279,-13.835554 -3.57569,-1.055917 -7.2557,-1.938801 -11.00519,-1.939558 z m -12.89453,37.687502 c 8.85354,4.2052 17.19433,9.81952 24.76373,16.14023 6.95791,5.81989 12.97718,12.65706 18.02145,20.18012 6.99755,10.30732 12.42242,21.61456 16.80997,33.25348 4.23763,11.59091 6.81025,23.73136 8.24469,35.95546 1.30229,11.54435 1.38857,23.26664 0.40052,34.85884 -0.52153,7.14223 -1.34545,14.22254 -2.91382,21.19938 -4.57943,21.88979 -13.02139,42.99643 -24.32707,62.27196 -6.30229,10.61473 -13.23329,20.83172 -21.19041,30.28542 -8.11183,9.64123 -16.95222,18.69558 -26.61135,26.79534 -3.43661,2.84805 -6.98637,5.57999 -10.8484,7.83205 -4.06511,2.48578 -8.19544,5.11049 -11.17319,8.90348 -1.04481,0.84947 -2.39907,1.18546 -3.54568,1.87489 -9.14061,4.47396 -18.57311,8.41723 -28.17927,11.81263 5.54224,-47.66801 11.0024,-95.34625 16.89453,-142.97266 4.46878,-33.00414 8.88778,-66.14907 17.24527,-98.44451 5.26496,-20.123 11.91819,-39.95986 20.49095,-58.92475 1.73691,-3.78402 3.57417,-7.52171 5.51574,-11.20496 0.13411,0.0612 0.26822,0.1224 0.40234,0.1836 z M 515.92578,384.10938 c 11.50619,24.73119 23.17928,49.3865 34.33789,74.27734 -12.68205,-1.87215 -25.3227,-3.91628 -37.9707,-6.00586 0.67858,-23.9371 1.32787,-47.87501 1.99219,-71.8125 0.54687,1.18034 1.09375,2.36068 1.64062,3.54102 z M 349.55664,465.4375 c 19.16364,0.34435 38.26971,1.97731 57.24623,4.65632 22.54433,3.02721 44.95862,7.04775 67.39635,10.87688 -1.96547,44.81249 -5.08749,89.59659 -9.88949,134.19571 -2.96633,28.53918 -6.6135,57.0057 -11.59372,85.26121 -6.84599,39.29631 -16.04117,78.21665 -28.26789,116.18866 -4.85288,15.30466 -10.41368,30.35323 -16.79998,45.08148 -4.55079,10.97662 -9.05592,22.00396 -14.71691,32.46814 -8.87581,17.08855 -19.12413,33.60744 -31.67928,48.23058 -9.72179,11.29698 -20.7951,21.57753 -33.21484,29.84766 -2.364,-0.16794 -4.5936,0.76521 -6.85178,1.3041 -7.79365,2.11888 -15.56789,4.51928 -23.62213,5.30439 -11.97405,1.44331 -24.18046,1.41637 -36.16727,0.0309 -12.64157,-1.45661 -25.06265,-4.30994 -37.14323,-8.33846 -6.261,-2.11917 -12.32474,-4.78241 -18.22767,-7.74384 -4.42238,-2.18253 -8.93019,-4.20896 -13.22929,-6.62962 -4.38424,-2.6151 -8.61177,-5.483 -12.87711,-8.28379 -5.86534,-3.93398 -11.46692,-8.27793 -16.58762,-13.14527 -16.22294,-14.86605 -29.22089,-33.18714 -38.13731,-53.2496 -5.06554,-11.21053 -9.06346,-22.92515 -11.6514,-34.94916 -1.71274,-7.57372 -3.52257,-15.11692 -4.90833,-22.75887 -0.89516,-6.42968 -1.70305,-12.88486 -2.47084,-19.34203 -0.91454,-8.19269 -1.27936,-16.4161 -1.03116,-24.66185 0.30922,-22.88352 3.17029,-45.64917 7.48196,-68.1215 4.35591,-22.42077 10.49661,-44.50334 18.1821,-66.03222 5.07151,-14.28955 11.50293,-28.02567 17.80258,-41.80698 5.12492,-10.47524 10.87108,-20.59953 16.8874,-30.58056 13.52153,-22.12473 29.35145,-42.90853 48.39246,-60.59245 8.94501,-8.26688 18.29963,-16.12442 28.30705,-23.08002 5.38208,-3.64454 11.01431,-6.84079 16.66409,-10.03412 2.96855,0.69671 5.93538,-0.40086 8.80702,-1.0455 7.09056,-1.95869 13.70405,-5.439 20.96328,-6.82521 19.97814,-4.63088 40.45643,-6.24779 60.93673,-6.22499 z m 406.20703,18.19727 c -7.23603,69.03796 -12.54159,138.26817 -17.39087,207.51214 -1.06448,16.76492 -1.89404,33.54449 -2.656,50.3277 -7.54964,-19.82349 -15.85605,-39.34907 -24.83873,-58.56598 -20.8468,-44.79637 -44.77313,-88.05841 -67.22254,-132.05188 -9.13761,-17.82972 -18.06225,-35.76962 -26.64772,-53.87237 29.49414,0.65899 59.03532,-1.18777 88.24141,-5.31258 17.11177,-2.46806 34.08546,-5.923 50.77031,-10.45891 -0.0853,0.80729 -0.17057,1.61458 -0.25586,2.42188 z" />
  </g>
</svg>
