<?xml version="1.0" encoding="UTF-8" standalone="no"?>
<!-- Created with Inkscape (http://www.inkscape.org/) -->

<svg
   width="4096"
   height="4096"
   viewBox="0 0 1083.7333 1083.7333"
   version="1.1"
   id="svg1"
   inkscape:version="1.3.2 (091e20ef0f, 2023-11-25)"
   sodipodi:docname="n-initial.svg"
   xmlns:inkscape="http://www.inkscape.org/namespaces/inkscape"
   xmlns:sodipodi="http://sodipodi.sourceforge.net/DTD/sodipodi-0.dtd"
   xmlns="http://www.w3.org/2000/svg"
   xmlns:svg="http://www.w3.org/2000/svg">
  <sodipodi:namedview
     id="namedview1"
     pagecolor="#505050"
     bordercolor="#eeeeee"
     borderopacity="1"
     inkscape:showpageshadow="0"
     inkscape:pageopacity="0"
     inkscape:pagecheckerboard="0"
     inkscape:deskcolor="#505050"
     inkscape:document-units="mm"
     inkscape:zoom="0.19662955"
     inkscape:cx="1576.5687"
     inkscape:cy="2367.3959"
     inkscape:window-width="1245"
     inkscape:window-height="1390"
     inkscape:window-x="0"
     inkscape:window-y="0"
     inkscape:window-maximized="1"
     inkscape:current-layer="layer1" />
  <defs
     id="defs1" />
  <g
     inkscape:label="Layer 1"
     inkscape:groupmode="layer"
     id="layer1">
    <path
       style="fill:#443d96;fill-opacity:1;fill-rule:nonzero;stroke-width:2.50628"
       id="path6"
       d="m 487.57955,213.51916 c -0.33972,1.16657 -0.79374,2.30925 -1.01894,3.49974 -0.26779,1.41313 -0.31835,2.85483 -0.45581,4.28417 -0.78106,8.14512 -0.36749,3.76073 -0.7154,12.81469 -0.72616,18.93367 -0.18304,-1.03324 -0.68584,20.93872 -0.89374,42.9724 -0.97415,85.95356 -1.55516,128.92977 -0.76924,66.7141 -3.36207,133.42152 -9.32289,199.91956 -1.389,15.49597 -3.15133,30.96076 -4.72692,46.44113 -6.79438,60.02743 -17.43334,119.74351 -35.34084,177.81013 -10.97077,35.57352 -14.00309,40.7943 -27.86838,74.25102 -12.82064,27.01255 -27.98434,53.13129 -49.72285,74.87124 -10.52008,10.52079 -24.62522,21.72915 -38.56469,28.26427 -3.32777,1.56026 5.65623,-4.52515 8.48432,-6.78782 -6.94804,1.79492 -13.75805,4.14748 -20.84407,5.38488 -22.77003,3.97581 -46.67573,2.28883 -68.92426,-3.43335 -21.26538,-5.46946 -26.45103,-9.12592 -45.96079,-18.45344 -7.01964,-4.70412 -14.42893,-8.93807 -21.05891,-14.11224 -21.60098,-16.8579 -38.08826,-38.16783 -49.12797,-62.3375 -10.7798,-23.6006 -11.87376,-34.28432 -17.68583,-59.41864 -1.20368,-11.11853 -3.232599,-22.18586 -3.611068,-33.35548 -0.872157,-25.73867 2.001068,-53.17717 6.678348,-78.47889 4.8034,-25.98417 12.25724,-52.77473 21.66666,-77.64483 4.5266,-11.96422 10.18718,-23.52705 15.28075,-35.29054 15.12655,-29.9462 33.12472,-58.71127 56.78566,-83.53836 6.8053,-7.14071 14.13388,-13.85782 21.75419,-20.23944 18.96561,-15.8828 23.6516,-17.40802 44.83299,-29.61978 -1.72073,1.73872 -7.68149,5.47504 -5.16216,5.21624 7.84981,-0.80663 14.85729,-5.05785 22.47733,-6.99536 7.47592,-1.90084 15.08691,-3.36475 22.7386,-4.50146 15.02049,-2.23145 31.08969,-3.01832 46.2837,-2.81781 7.81648,0.10323 15.61486,0.73313 23.42224,1.0998 40.80624,3.36434 80.88035,11.60255 121.185,18.0985 8.556,1.37898 17.13521,2.62918 25.70288,3.94377 44.28376,6.46822 89.12411,10.12348 133.95783,7.83135 8.90647,-0.45514 17.77832,-1.37929 26.66748,-2.06899 32.84429,-3.37315 65.48461,-9.68986 96.3547,-20.8977 18.57263,-6.74308 23.68835,-9.808 41.10365,-18.3241 15.68688,-8.85126 31.72572,-17.17957 47.06055,-26.55385 9.69032,-5.92367 24.0639,-18.35877 31.98725,-26.19679 8.77655,-8.68219 18.66628,-20.33422 25.78057,-30.28972 3.72195,-5.20847 6.9435,-10.71442 10.41526,-16.07159 15.32828,-26.00065 25.80222,-54.45964 29.34811,-84.03475 0.65238,-5.44561 0.78399,-10.93486 1.17577,-16.40227 0.71633,-23.42581 -2.31771,-46.94895 -10.50378,-69.16451 -1.35075,-3.66596 -3.00256,-7.22898 -4.50387,-10.84348 -5.63776,-12.50498 -12.72848,-24.50504 -22.1233,-34.91108 -5.10731,-5.65701 -7.88018,-7.81669 -13.56445,-12.81252 -9.97818,-7.35829 -20.49635,-14.69428 -32.58705,-18.75476 -1.56854,-0.52677 -3.19563,-0.8869 -4.79345,-1.33032 -1.38067,-0.20088 -2.74638,-0.5405 -4.14207,-0.60268 -14.19795,-0.63326 -39.92482,19.22731 -40.00253,19.27221 -1.31742,0.76109 -1.89075,2.29509 -2.76134,3.49211 -2.98097,4.0984 -3.62501,5.51227 -6.27745,10.08391 -8.76958,16.51315 -15.4052,34.01213 -20.92324,51.69355 -1.59896,5.12339 -3.00861,10.2967 -4.51284,15.44505 -10.76737,39.07078 -15.30678,79.32164 -19.99325,119.33558 -6.01096,54.69738 -11.88488,109.40987 -17.61274,164.13399 -6.76367,63.69479 -11.63041,127.5503 -16.32301,191.40252 -3.2145,44.52834 -4.53121,89.14391 -6.69174,133.71994 -0.80357,9.37174 -0.56762,18.84565 -1.86539,28.18528 -0.19371,1.3929 -0.41378,2.79403 -0.85057,4.13798 -0.22933,0.70596 -1.8092,2.31569 -1.12649,1.94584 10.74856,-5.82174 21.07173,-12.30361 31.60764,-18.45542 -0.20298,0.13295 -0.39812,0.52031 -0.60751,0.39727 -1.40317,-0.81863 -4.13345,-4.78227 -4.6149,-5.50616 -4.33465,-6.51733 -7.37004,-13.61295 -10.55442,-20.65538 -9.95126,-24.20423 -18.19552,-48.98403 -28.09572,-73.20703 -2.73178,-6.68358 -5.6317,-13.30612 -8.44752,-19.95911 -19.85459,-45.52266 -43.7207,-89.38345 -66.72021,-133.55779 -4.23502,-8.2075 -8.52095,-16.39227 -12.70497,-24.62256 -7.35879,-14.47505 -16.7994,-33.51262 -23.73806,-48.196 -10.43969,-22.09207 -20.16191,-44.47036 -29.92201,-66.82874 -13.71885,-32.25115 -28.39391,-64.13913 -41.73495,-96.53006 -6.1202,-15.47171 -11.78311,-31.16965 -15.34915,-47.34603 -1.08767,-5.75141 -1.76467,-9.26882 -2.889,-14.73237 -1.06822,-5.19088 -1.8616,-11.20785 -2.76778,-15.18568 -1.46118,-6.41407 -2.17738,-10.56002 -3.00087,-14.88714 -0.58198,-3.05806 -1.39501,-7.70763 -1.8841,-10.63953 -1.69611,-10.16756 -1.672,-14.33234 -2.22953,-16.02614 -1.41758,-4.30662 -22.37086,-5.21557 -24.80814,30.8126 -0.0633,9.59884 0.98119,19.26319 1.79638,28.90149 -0.0788,2.88863 -0.99617,15.04075 2.4583,28.53537 4.49147,16.00099 11.0907,31.42543 17.59043,46.78433 14.182,31.99157 29.76469,63.42138 44.00487,95.3922 6.04692,13.39966 13.59537,30.23832 19.7954,43.51425 11.17169,23.92171 22.94318,47.56381 34.93816,71.1322 4.19007,8.23283 8.39098,16.46088 12.58646,24.69132 22.58288,44.30645 46.01342,88.32366 65.33649,133.99177 2.65236,6.70658 5.39804,13.38157 7.95696,20.11964 9.34832,24.61588 16.93699,49.75656 25.85863,74.50013 2.90919,7.45764 5.72458,14.82723 9.72015,21.84933 1.22249,2.14839 3.0381,5.15326 4.77521,7.11021 0.77616,0.87441 1.69832,1.62511 2.54754,2.43764 11.33585,-6.40138 23.01419,-12.30101 34.0076,-19.20414 0.70863,-0.44524 0.28702,-1.57485 0.3497,-2.37018 0.10753,-1.36182 0.146,-2.72855 0.1638,-4.09402 0.11822,-9.09788 -0.35681,-18.19695 -0.1923,-27.29523 0.008,-43.96011 0.40667,-87.93513 2.9938,-131.84082 3.88276,-63.88278 9.25039,-127.68069 16.41816,-191.31885 6.31463,-54.96525 12.65526,-109.92836 19.28653,-164.86091 5.37974,-40.16804 10.48171,-80.58163 22.05351,-119.69874 1.65749,-5.17028 3.21286,-10.37003 4.97227,-15.51081 6.10582,-17.84062 13.34283,-35.49731 23.17415,-51.85567 2.25019,-3.32671 4.25958,-6.71948 7.17119,-9.60231 1.00548,-0.99551 4.65821,-3.2789 3.35666,-2.65067 -10.15772,4.90283 -20.00728,10.34397 -30.01096,15.51595 1.07244,-0.38861 2.08347,-0.98562 3.21751,-1.1657 1.30253,-0.20688 2.64231,0.0172 3.96359,0.0255 1.57559,0.28997 3.17732,0.47558 4.72671,0.86986 12.13308,3.08772 22.7246,10.13654 32.52879,17.2003 5.83612,4.88771 8.2338,6.59785 13.451,12.21404 9.32475,10.03792 16.30813,21.71834 22.06625,33.81401 4.022,9.37313 5.50558,12.10633 8.44753,21.98038 5.44432,18.27284 7.52408,37.22966 6.95489,56.16753 -1.07398,14.40719 -0.86916,18.18747 -3.92057,32.48433 -4.97655,23.3186 -14.28392,45.59189 -26.73271,66.29315 -3.4917,5.26503 -6.7463,10.67392 -10.47509,15.79507 -7.42658,10.19985 -16.62768,20.85285 -25.80956,29.70047 -4.88439,4.70657 -10.00694,9.20788 -15.34359,13.4641 -5.37368,4.28573 -12.47984,6.87492 -16.75133,12.13303 -2.3588,2.90341 7.08182,-3.05946 10.6228,-4.58916 -17.39431,8.77354 -22.52313,11.93951 -41.08308,18.91057 -30.83632,11.58201 -63.50478,18.26028 -96.43083,21.92237 -24.16289,2.0193 -29.08831,2.89267 -53.40931,3.0703 -35.72428,0.26119 -71.33048,-3.17838 -106.5902,-8.3159 -27.12086,-4.21164 -23.78791,-3.57746 -50.65302,-8.20979 -31.84752,-5.49136 -63.62224,-11.78096 -95.93474,-14.44111 -7.83239,-0.44523 -15.65233,-1.16574 -23.49705,-1.33513 -14.64957,-0.31647 -32.19455,0.40718 -46.69771,2.3905 -12.62873,1.72683 -34.41086,6.19264 -46.04397,11.20064 -17.42292,7.5004 -33.99248,16.62266 -50.9887,24.93397 -20.66555,12.39198 -25.19826,13.93534 -43.59861,29.90016 -7.42467,6.44184 -14.56495,13.20123 -21.16982,20.38032 -22.9304,24.9239 -40.0426,53.71077 -54.57073,83.48919 -4.91819,11.77136 -10.37684,23.35786 -14.75455,35.31404 -13.995181,38.2231 -23.003682,78.1116 -27.030101,118.32459 -1.31169,13.10046 -2.42621,26.26134 -2.233353,39.41779 0.166227,11.33592 2.205122,22.5801 3.307683,33.8701 5.512064,24.68992 7.026596,37.19556 17.196621,60.54748 7.45721,17.1229 17.14487,32.49937 30.02604,46.53398 14.38897,15.67745 22.65544,19.96505 40.21007,32.085 19.36594,9.47401 25.18767,13.44638 46.251,19.27853 22.26029,6.16363 46.32609,8.45153 69.34145,4.94873 7.22262,-1.0993 14.19068,-3.34632 21.28604,-5.01936 18.91943,-9.33735 49.38414,-22.06278 68.18771,-36.59778 21.45219,-16.58231 37.50677,-38.35276 50.11695,-61.31809 5.29092,-9.63565 9.62956,-19.70245 14.44437,-29.55373 4.41977,-11.46627 9.17831,-22.82342 13.25928,-34.39886 10.2887,-29.18373 16.68018,-51.91513 24.08711,-82.00882 3.71119,-15.07831 7.38813,-30.17554 10.32773,-45.40181 4.98738,-25.83309 9.50736,-63.96353 12.85846,-89.81096 1.59042,-15.50509 3.31201,-30.99892 4.77116,-46.51532 2.6226,-27.88894 5.44639,-63.04784 6.9606,-91.10241 1.25169,-23.19343 1.78832,-50.98368 2.4189,-74.26343 0.31765,-11.73551 0.65665,-23.47048 0.98547,-35.20561 0.5662,-19.95057 1.26259,-39.89779 1.81005,-59.84877 0.51421,-18.7332 0.49569,-37.47255 0.93783,-56.20571 0.10683,-4.54755 0.3212,-9.09235 0.48215,-13.63853 0.35895,-8.9744 0.83577,-12.11354 0.63635,-20.65744 -0.11537,-4.91566 -0.45473,-11.30665 -3.12057,-15.79755 -0.48143,-0.80989 -1.27696,-1.41663 -1.91552,-2.1249 z"
       sodipodi:nodetypes="ccccccscscssccscsscssscssccssscscccscssscccscscsccsccscccccsscccscsccsscccssssscccccssccscssccsccccccscsscscscscscccsssscscccscccscsscssscsscsscsscssscscccccccccc" />
  </g>
</svg>
