<?xml version="1.0" encoding="UTF-8" standalone="no"?>
<!-- Created with Inkscape (http://www.inkscape.org/) -->

<svg
   width="275.7338mm"
   height="50.180023mm"
   viewBox="0 0 275.7338 50.180022"
   version="1.1"
   id="svg1"
   inkscape:version="1.3.2 (091e20ef0f, 2023-11-25)"
   sodipodi:docname="signature.svg"
   xmlns:inkscape="http://www.inkscape.org/namespaces/inkscape"
   xmlns:sodipodi="http://sodipodi.sourceforge.net/DTD/sodipodi-0.dtd"
   xmlns="http://www.w3.org/2000/svg"
   xmlns:svg="http://www.w3.org/2000/svg">
  <sodipodi:namedview
     id="namedview1"
     pagecolor="#505050"
     bordercolor="#eeeeee"
     borderopacity="1"
     inkscape:showpageshadow="0"
     inkscape:pageopacity="0"
     inkscape:pagecheckerboard="0"
     inkscape:deskcolor="#505050"
     inkscape:document-units="mm"
     inkscape:zoom="16"
     inkscape:cx="761"
     inkscape:cy="129.53125"
     inkscape:window-width="1245"
     inkscape:window-height="1390"
     inkscape:window-x="0"
     inkscape:window-y="0"
     inkscape:window-maximized="1"
     inkscape:current-layer="layer1"
     showguides="false" />
  <defs
     id="defs1" />
  <g
     inkscape:label="Signature"
     inkscape:groupmode="layer"
     id="layer1"
     transform="translate(-11.681313,-76.349617)">
    <path
       id="path2"
       style="fill:#000000;stroke-width:0.139478"
       inkscape:label="Niederman"
       d="m 211.6962,104.02101 c -1.00999,0.18696 -1.28301,2.7093 -0.63831,3.57889 0.13132,0.39432 0.29442,0.83808 0.12818,1.27049 -0.59171,2.13575 -1.02994,4.3078 -2.14604,6.23605 -0.61883,1.12065 -1.00875,2.41911 -2.08164,3.21026 -0.5745,0.47748 -1.07564,1.10305 -1.87958,1.1477 -2.32773,0.49806 -4.54764,-1.18413 -5.47018,-3.23163 -0.64595,-1.30146 -0.84437,-2.78004 -0.7441,-4.2188 2.57407,-1.39992 5.19319,-2.97388 6.98437,-5.34961 0.74749,-1.11005 1.42978,-2.38698 1.489,-3.74608 -0.19382,-1.23629 -1.73594,-1.61175 -2.8015,-1.41799 -1.31052,0.36247 -2.51255,1.07098 -3.66796,1.7754 -1.51645,0.95248 -2.47796,2.50075 -3.3079,4.0439 -0.70858,1.35623 -1.28023,2.81022 -1.48898,4.33305 -1.63126,0.46276 -3.60835,0.003 -4.54566,-1.49846 -0.66585,-0.93122 -1.08554,-2.07761 -1.19252,-3.20122 1.6727,-5.77601 2.20301,-11.806923 2.58831,-17.784988 0.0843,-2.604932 0.2164,-5.275506 -0.44388,-7.820019 -0.0897,-0.729415 -0.77316,-1.421437 -1.53125,-1.072266 -1.31811,0.609392 -2.35331,1.834616 -2.59167,3.287767 -0.91079,4.129492 -0.96096,8.386916 -1.1466,12.595887 -0.0941,3.03547 -0.18214,6.074189 -0.0723,9.110489 -0.57057,-0.37663 -1.34597,-0.50209 -2.01367,-0.41602 -1.37877,0.49719 -2.67362,1.23083 -3.91015,2.00977 -2.02818,1.61103 -3.59006,3.72584 -4.78321,6.00976 -2.28034,1.79023 -4.07599,4.25686 -6.74526,5.50766 -1.73546,0.699 -3.88133,1.36942 -5.59458,0.25371 -0.47733,-0.27844 -0.92355,-0.61824 -1.29492,-1.02895 3.01182,-3.45096 5.99882,-7.08663 7.66613,-11.40403 0.58524,-1.29949 -0.16684,-2.84082 -1.41418,-3.42019 -1.43358,-0.75181 -2.98245,0.13494 -4.2266,0.85006 -1.7507,0.72122 -2.65268,2.48109 -3.54488,4.03276 -1.37278,2.71532 -2.8529,5.66266 -2.46875,8.79883 0.11271,0.65318 0.30478,1.30453 0.66406,1.86718 -1.35037,1.45354 -2.57564,3.1349 -4.19922,4.33203 -0.91742,0.50024 -2.14,-0.0464 -2.52025,-1.00636 -1.29573,-2.67756 -0.8913,-5.8287 -0.60762,-8.72955 0.21344,-1.50994 0.23527,-3.0657 0.56855,-4.54643 0.4504,-1.3351 1.12462,-2.67306 1.1253,-4.10152 -0.0901,-1.06687 -1.40898,-1.19682 -2.20661,-0.87004 -1.14444,0.36021 -1.59928,1.60526 -1.61697,2.70586 -0.20886,1.32162 -0.0694,2.79462 -0.70635,3.97167 -1.05525,2.45465 -2.4459,4.77 -4.10784,6.78878 -1.34322,1.87225 -3.00571,3.50195 -5.05907,4.40088 -0.64895,0.10805 -1.36412,-0.006 -1.70312,-0.64258 -0.81093,-1.35995 -1.00114,-2.98832 -1.27735,-4.52149 -0.77812,-5.03886 0.6339,-10.05262 1.77044,-14.92229 0.96849,-4.069458 2.36149,-8.017606 3.9008,-11.901924 1.10639,-3.024705 2.351,-6.080859 2.60882,-9.320701 0.0832,-0.911227 -0.18942,-2.254621 -1.33279,-2.257424 -0.99003,0.0841 -1.84522,0.7169 -2.73306,1.122057 -2.75314,1.502662 -5.00906,3.784676 -6.95756,6.212032 -2.11948,2.781841 -4.03291,5.811806 -5.70001,8.82802 0.12632,-4.610461 -0.33232,-9.363786 -2.3125,-13.583984 -0.80481,-1.506902 -2.01651,-3.136312 -3.81822,-3.402841 -0.19341,-0.02634 -0.38954,-0.02029 -0.58412,-0.01903 l 10e-6,9.6e-5 c -2.03023,0.166632 -3.74638,1.423192 -5.43828,2.439652 -2.73964,1.903774 -5.06311,4.353342 -6.9241,7.115496 -0.94291,1.325232 -0.61663,1.045187 -1.55678,2.373199 1.13176,-0.433521 1.84844,-0.318709 2.91974,-0.832583 1.844,-2.571637 2.89228,-4.019003 5.27033,-6.138874 1.50367,-1.496153 3.59912,-2.215309 5.69048,-2.29408 0.62137,-0.01994 0.95782,0.737853 1.32484,1.165618 1.11956,1.817969 1.46423,3.974758 1.98225,6.014476 0.78979,4.064645 0.68998,8.422708 0.25631,12.607301 -0.0348,0.901034 -0.25293,1.756284 -0.6869,2.547844 -1.75808,4.25482 -3.12397,8.6595 -4.51121,13.04503 -0.61774,2.0125 -2.98433,9.92745 -2.16457,10.46668 0.70499,-0.2662 1.24163,-0.21475 2.07127,-0.66379 0.99823,-0.36858 1.11814,-1.5883 1.51933,-2.38936 3.16736,-6.98507 5.3527,-14.41976 6.43088,-22.0152 2.65319,-5.811736 5.74989,-11.492058 9.86041,-16.411215 1.30734,-1.471471 2.76145,-2.847996 4.3935,-3.944257 0.20021,1.828178 -0.44563,3.627222 -0.92028,5.37019 -1.50164,4.746132 -3.63687,9.281707 -4.85813,14.135635 -1.07189,4.187707 -2.19922,8.400187 -2.55167,12.722687 -0.18639,3.07214 0.17442,6.20036 1.17773,9.11328 0.4395,1.13799 1.42648,2.26786 2.75442,2.17026 1.67971,-0.095 3.1068,-1.13588 4.57463,-1.86339 1.80643,-1.03411 3.26391,-2.56664 4.7019,-4.04792 0.6273,-0.70473 1.20868,-1.45011 1.74835,-2.22379 -0.21778,2.78133 -0.31421,5.83612 1.23455,8.28361 0.78121,1.27611 2.46134,1.69252 3.82795,1.20467 2.75186,-0.74048 4.86718,-2.81899 6.66797,-4.92383 1.31269,1.17111 3.11704,1.80856 4.86967,1.44697 2.4825,-0.42024 4.77212,-1.59817 6.91803,-2.87144 0.84238,-0.51749 1.65559,-1.08728 2.38808,-1.75326 -0.37666,1.49907 0.25493,3.44941 1.88739,3.85675 1.9343,0.45178 3.78637,-0.66475 5.39972,-1.59308 2.5353,-1.32824 4.41699,-3.62176 5.74552,-6.11387 0.24402,-0.44759 0.46447,-0.90762 0.67831,-1.37051 0.89707,1.49574 2.53837,2.4855 4.29327,2.50026 1.01927,0.072 2.02603,-0.22355 2.97431,-0.57057 -0.11311,3.35564 1.80875,6.98366 5.12911,8.05176 1.73426,0.60401 3.60509,0.04 5.13261,-0.84668 -0.33175,0.51707 -0.94545,1.80626 0.0359,1.15878 1.0414,-0.50148 1.90986,-0.77888 3.09692,-1.77206 1.20619,-1.69542 1.97396,-3.64126 3.03187,-5.42203 0.63309,-1.19765 1.06928,-2.4924 1.5944,-3.72823 1.00273,-1.60426 2.00624,-3.27786 3.44599,-4.52943 1.08819,-0.75403 2.19078,-1.5578 3.45508,-1.98242 -1.25911,2.65943 -2.04127,5.50975 -3.18164,8.21484 -1.20878,2.49039 -2.81284,4.76299 -4.40039,7.01758 -0.30822,0.29498 -1.00348,1.54073 -0.86528,2.00488 l 1.88187,-0.10098 c 1.21659,-0.0546 1.26832,-0.82408 1.72795,-1.64195 1.09501,-1.84534 2.19381,-3.69301 3.57208,-5.3471 1.91951,-2.3866 3.7527,-4.83419 5.77123,-7.13775 1.49464,-1.62598 3.15724,-3.11228 5.01371,-4.31421 -0.52903,2.40614 -1.84025,4.54961 -3.00346,6.69343 -1.24224,2.19445 -2.94371,4.08084 -4.32339,6.18785 -0.80252,1.06719 -1.35385,2.29825 -2.24737,3.29255 2.23486,0.40631 3.86822,-1.27752 3.90235,-1.33008 1.789,-2.296 3.32143,-4.77708 4.84953,-7.24663 1.8792,-2.43255 4.2328,-4.4588 6.72078,-6.24555 -2.04205,4.27876 -4.27844,8.46359 -6.36215,12.71942 -0.4341,1.10708 -1.04563,2.27594 -0.88785,3.49542 0.27535,1.06014 1.58948,1.04734 2.39555,0.65034 2.67195,-1.20881 5.2263,-2.67794 7.57906,-4.43354 2.27297,-1.46366 4.75729,-2.68891 7.08008,-3.91016 -1.78959,1.81271 -3.66691,3.70513 -4.61719,6.11328 -0.46749,1.14745 0.17533,2.71247 1.49484,2.84422 1.26662,0.26862 2.5736,-0.22525 3.66306,-0.86318 1.86675,-1.00167 3.78644,-2.02431 5.16473,-3.67973 1.06009,-1.11817 1.94441,-2.38502 2.8551,-3.62357 0.46621,2.0695 1.59427,4.47393 3.25345,6.55984 1.73906,1.6275 2.48064,2.08364 4.77897,1.65301 1.78643,-0.49633 3.30288,-1.72556 4.14202,-3.1783 0.54301,-0.72021 0.80591,-1.63614 1.28998,-2.364 0.75983,-0.58036 1.23902,-1.45773 1.93417,-2.11586 2.94792,-3.14824 6.06184,-6.21564 9.72461,-8.5293 0.42796,-0.13294 1.11054,-0.26756 0.95703,0.42969 -0.2825,3.7842 -1.89078,7.41831 -1.63672,11.25195 0.0425,0.8968 0.42555,1.78391 1.23486,2.23564 0.4695,0.16632 1.18016,0.0559 1.69507,-0.0129 0.68004,-0.17353 0.9979,-1.00356 1.61503,-1.2976 0.55861,-0.53944 1.04268,-1.15799 1.59176,-1.71228 -0.75555,0.20794 -1.67841,0.0672 -2.21434,0.72051 -0.25332,0.36311 -0.69847,0.35994 -0.85597,-0.0897 -0.54393,-2.12234 0.0918,-4.32291 0.49776,-6.41609 0.34979,-1.98448 1.06272,-3.9531 0.95927,-5.98821 -0.0516,-1.00789 -1.09922,-1.74102 -2.06137,-1.39476 -1.26607,0.39026 -2.4517,1.064 -3.64175,1.65648 -3.01364,1.78681 -5.62741,4.16552 -8.10938,6.61914 0.95663,-2.78702 1.82378,-5.63143 2.26728,-8.54719 0.0364,-0.44293 -0.6275,-0.59636 -0.95087,-0.34929 -0.69596,0.44109 -1.89302,0.30905 -2.11914,1.28515 -1.19257,4.18235 -2.18716,8.39026 -3.95899,12.38086 -0.83903,1.67777 -1.51205,2.78212 -2.96553,3.52944 -1.90041,0.54451 -2.85205,-0.6976 -3.68942,-3.30041 -0.96161,-2.76633 -1.24574,-5.44319 -1.11082,-7.34817 0.83885,-1.61404 1.65997,-3.30589 1.93391,-5.11402 0.0961,-0.83726 -0.86961,-1.34814 -1.57649,-0.97778 -0.64578,0.20157 -1.13245,0.72277 -1.6582,1.08399 -1.57199,1.56056 -4.55052,3.60421 -6.38289,5.24493 -4.17007,2.07706 -8.33653,4.17504 -12.37297,6.50311 -1.6452,1.05157 -3.17531,2.31751 -4.94141,3.15821 -0.66441,0.28588 -0.087,-0.7593 -0.0433,-1.09555 0.92383,-2.56496 2.36342,-4.90127 3.53905,-7.35476 1.44824,-2.90757 2.95251,-5.79314 4.3343,-8.72938 0.32419,-0.66387 -0.35737,-1.42842 -1.0499,-1.11933 -1.25003,0.43885 -2.27387,1.33657 -3.43534,1.95705 -1.11709,0.69381 -2.19265,1.45364 -3.22375,2.2697 0.45095,-1.20564 1.24604,-2.52644 0.80177,-3.84359 -0.24506,-0.75428 -1.18816,-0.93245 -1.79378,-0.47983 -3.6377,1.58131 -6.75988,4.17122 -9.31463,7.17694 0.53385,-1.42739 1.09397,-2.91942 1.80469,-4.30469 0.30765,-0.57789 0.58693,-0.97239 -0.0559,-1.57788 -0.60154,-0.3542 -0.99168,-0.20981 -1.6173,-0.0341 -2.03703,0.6946 -3.91799,1.79505 -5.74142,2.92666 -0.5621,0.30833 -1.17589,0.80977 -1.65371,1.08764 -0.39466,-1.0739 -0.83844,-2.46331 -1.78576,-2.22102 m -9.54042,-0.31794 c 0.25396,0.0872 1.04491,0.009 0.82422,0.48242 -0.64938,2.72041 -2.9456,4.57395 -5.18164,6.02344 0.60562,-2.19772 1.711,-4.31012 3.31445,-5.9375 0.2987,-0.23419 0.63664,-0.58421 1.04297,-0.56836 z m -37.13867,1.0625 c 0.91842,0.0838 1.66447,1.11756 1.15535,1.97864 -1.29849,3.34727 -3.49728,6.2803 -5.75691,9.00183 -0.33627,-1.9326 0.33432,-3.7219 1.00976,-5.48242 0.8575,-1.92375 1.75896,-3.90662 3.22852,-5.44727 0.0902,-0.10416 0.24715,-0.0358 0.36328,-0.0508 z m 20.8418,1.80078 c 0.0796,0.74595 0.2804,1.48951 -0.11312,2.18637 -1.13937,3.52433 -2.95728,6.99956 -5.97929,9.26108 -0.6137,0.57565 -1.61671,0.63537 -2.41931,0.492 -1.10303,-0.45219 -0.97499,-1.91003 -0.67524,-2.85325 0.2919,-0.92333 0.64951,-1.86279 1.14984,-2.67988 2.3969,-1.89981 4.91281,-3.66201 7.11719,-5.79108 0.30868,-0.24559 0.6489,-0.46145 0.90821,-0.76172 l 0.008,0.0997 z m 65.91828,5.46773 c -4.40577,6.96986 -4.87804,6.71262 -6.12141,7.38579 -0.79075,0.28868 -1.74843,0.71312 -2.55078,0.28125 -0.49174,-0.7897 0.22652,-1.6889 0.61933,-2.37119 1.83801,-2.78773 4.40365,-4.99892 6.86665,-7.20467 0.87475,-0.43666 1.74483,-0.88633 2.59214,-1.37336 -0.01,1.27813 -0.81423,2.21706 -1.40593,3.28218 z"
       sodipodi:nodetypes="ccccccccccccccccccccccccccccccccccccccccccccccccccccccccccccccccccccccccccccccccccccccccccccccccccccccccccccccccccccccccccccccccccccccccccccccccccccccccccccccccccccccccccccccccccsccccssccccccccccccccccc" />
    <path
       id="path8"
       style="fill:#000000;stroke-width:0.139478"
       inkscape:label="I Dot"
       d="m 109.7903,88.18399 c -0.59986,0.231827 -1.27217,0.2188 -1.56998,0.424543 -1.21491,1.624158 -1.92733,3.483864 -2.18904,5.278923 -0.0177,1.503264 0.41299,3.263333 1.76097,4.114894 1.8706,1.052715 4.11818,0.543764 6.10262,0.156015 3.10765,-0.688245 6.02163,-2.787207 8.98941,-3.795122 3.60069,-1.047617 7.28715,-1.86825 11.0288,-2.194048 2.38793,-0.184953 5.09385,0.771236 7.54053,1.315968 1.55171,0.381422 3.12118,0.539728 4.49489,1.382421 0.35444,0.331828 1.02858,0.651664 1.17918,1.072965 -0.49488,1.344575 -0.42916,3.371783 1.20645,4.000515 0.94902,-0.220365 1.60881,-0.560224 2.45303,-1.043141 0.93428,-0.673499 1.09961,-2.025675 0.37228,-2.98737 -0.22295,-0.450767 -0.64953,-0.859776 -0.88086,-1.236329 0.48616,-0.787139 1.03667,-1.692699 1.91406,-2.05664 0.71163,-0.05412 0.55031,0.930161 0.58694,1.383907 -0.0142,1.401983 -0.513,2.72761 -1.02444,4.012577 0.91648,-0.394558 1.98521,-0.345481 2.83985,-0.873047 0.7471,-0.629443 0.77634,-1.721622 0.99759,-2.611677 0.14848,-1.240314 0.35657,-2.76522 -0.59915,-3.741838 -1.1661,-0.908111 -2.67691,-0.09088 -3.76152,0.551822 -0.92028,0.523757 -1.86093,1.057931 -2.56466,1.872006 -1.52207,-1.30463 -3.62779,-1.443799 -5.49699,-1.908801 -5.22791,-1.16189 -10.67421,-1.215044 -15.80802,0.04201 -2.8669,0.56878 -5.56562,1.702686 -8.3038,2.686358 -2.63438,0.825235 -5.19791,2.567215 -7.98896,2.508988 -0.95541,-0.0323 -1.96689,-0.512009 -2.23426,-1.502378 -0.50331,-1.071138 -0.35055,-2.290946 0.17188,-3.322266 0.55844,-1.378618 1.31478,-2.661688 2.09179,-3.925781 -0.43619,0.13151 -0.87239,0.263021 -1.30859,0.394531 z"
       sodipodi:nodetypes="ccccccccccccccccccccccccccccccc" />
    <path
       id="path6"
       style="fill:#000000;stroke-width:0.139478"
       inkscape:label="X Downstroke"
       d="m 78.302734,105.13477 c -0.764912,0.0465 -1.545735,0.13924 -2.119111,0.70491 -0.685497,0.46499 -1.371104,0.92981 -2.05667,1.3947 1.121854,0.0534 2.229204,-0.0398 3.339844,-0.16602 1.66952,-0.0581 3.373919,0.8468 4.063487,2.37508 1.406371,2.83495 1.301761,6.24886 3.132283,8.90538 1.190128,1.85894 3.32326,2.85004 5.417511,3.3172 2.221722,0.41491 4.49231,0.0572 6.730469,0.31054 0.519348,-0.3476 1.040498,-0.69251 1.560547,-1.03906 -1.719724,-0.0732 -3.479064,0.0302 -5.125,-0.57031 -2.044446,-0.66574 -4.426595,-0.97214 -5.878982,-2.73543 -1.694177,-1.94525 -1.96952,-4.62993 -2.713511,-7.01038 -0.57811,-2.00751 -1.584714,-4.20583 -3.669603,-5.00782 -0.836499,-0.38488 -1.763753,-0.54407 -2.681264,-0.47879 z" />
    <path
       id="path5"
       style="fill:#000000;stroke-width:0.139478"
       inkscape:label="Max"
       d="m 19.761719,77.964844 c -1.770548,0.15843 -3.327417,1.157131 -4.782373,2.102005 -1.65121,1.29759 -3.198749,2.962643 -3.759533,5.033008 -0.155739,0.507029 0.0055,1.021347 0.09659,1.52319 0.613007,-0.347799 1.399982,-0.544316 1.910209,-0.980362 0.658741,-2.261061 2.17273,-4.334657 4.228926,-5.492065 1.105311,-0.481534 2.637635,-0.532589 3.40692,0.556537 1.902508,2.415146 2.038079,5.669422 2.008265,8.615006 -0.05982,2.184064 -0.224977,4.385506 -0.620861,6.529789 -2.311929,4.837088 -4.187854,9.869938 -5.998047,14.910848 -1.596292,4.78012 -2.978913,9.63219 -4.286282,14.49867 -0.247353,0.68845 -0.07627,1.39891 0.35087,1.97486 0.874747,-0.51138 1.903728,-0.83154 2.652344,-1.51758 1.950423,-3.76273 3.229265,-7.82943 4.529569,-11.85055 1.792942,-5.69826 3.369217,-11.48188 4.506974,-17.34259 1.405543,-2.824856 2.937853,-5.56024 4.972621,-8.013603 0.572627,-0.674078 3.088818,-3.464348 4.489755,-2.925514 1.477675,0.679144 1.774099,2.216631 1.912112,3.54597 0.09274,1.309011 0.138903,2.670097 -0.09357,3.951936 -4.455715,7.250671 -7.66805,15.220581 -9.927868,23.410731 -0.618629,2.39335 -1.237323,4.8047 -1.547909,7.25908 -0.100098,0.8881 -0.114628,1.84134 0.482539,2.57391 0.912322,-0.49555 2.017343,-0.72739 2.78125,-1.44531 1.528649,-2.3121 2.535856,-4.92181 3.65101,-7.44772 2.762655,-7.07279 5.132727,-14.33254 6.576935,-21.797791 0.233342,-1.048847 0.31103,-2.150219 0.529159,-3.185038 1.718649,-2.467543 3.486541,-4.981432 5.862036,-6.866323 0.63819,-0.232596 0.649236,0.692186 0.664762,1.098044 -0.185257,3.363683 -1.506855,6.525421 -2.536942,9.695768 -2.32929,6.75708 -5.087327,13.49446 -5.761198,20.6735 -0.132445,2.42626 -0.223812,5.13664 1.274003,7.19675 0.950497,1.20341 2.720676,1.26114 4.002213,0.58419 1.672264,-0.7894 3.318892,-1.70319 4.586292,-3.07793 2.523923,-2.39655 4.863908,-4.9808 7.161495,-7.5922 -0.868958,2.3479 -1.730505,4.92405 -1.127831,7.43817 0.282931,1.34876 1.720783,2.30128 3.06725,1.90535 1.475481,-0.44791 2.804039,-1.29046 4.086351,-2.12817 2.450122,-2.07156 4.348778,-4.70453 5.999621,-7.4341 0.42626,2.43803 0.848582,5.17887 2.824219,6.89063 1.624867,1.38426 3.953497,1.118 5.830334,0.46434 2.81271,-0.87 5.363121,-2.4062 7.904699,-3.86368 4.891471,-3.03383 9.584986,-6.38151 14.208326,-9.80379 0.397118,-0.41656 0.05306,-1.01963 -0.21875,-1.40625 -0.590577,0.22293 -1.183305,0.42622 -1.733833,0.67213 -0.161636,0.39402 -1.014161,0.54392 -1.063072,0.90791 -2.323589,1.94525 -4.876369,3.77818 -7.390962,5.53987 -2.622566,1.81574 -5.295124,3.58448 -8.125844,5.05887 -1.675782,0.75362 -3.36187,1.49234 -5.202162,1.51901 -1.887658,0.0727 -3.273745,-1.59182 -3.780822,-3.25908 -0.832411,-2.46173 -1.074121,-5.10891 -0.981155,-7.69129 0.30714,-1.17401 0.655767,-2.44608 0.373553,-3.65171 -0.362649,-0.73383 -1.143208,-0.0556 -1.642756,0.17875 -0.623339,0.38603 -1.122457,0.54482 -1.363103,1.69429 -0.09425,1.13489 0.189679,2.32234 -0.320628,3.38696 -1.187776,3.12503 -3.051236,5.95001 -5.299614,8.44157 -0.791714,0.89493 -1.763733,1.61819 -2.668676,2.37072 -0.822592,0.43263 -1.795634,-0.15702 -1.937645,-1.03909 -0.532768,-2.60139 0.445993,-5.22168 1.461656,-7.58352 1.449428,-3.22832 4.435386,-5.55034 7.168388,-7.92856 0.28207,-0.32325 0.528464,-0.5486 0.337472,-1.01971 -0.471519,-0.51203 -1.159769,-0.78751 -1.855559,-0.76027 -1.320169,0.95621 -2.449702,2.04408 -3.585266,3.37518 -4.42685,4.91644 -8.936258,10.11873 -13.782788,14.66918 -0.773761,0.68261 -1.620802,1.34413 -2.417731,1.95278 -0.990126,0.46067 -2.214798,-0.009 -2.618977,-1.02788 -1.156777,-2.43992 -0.87357,-5.25177 -0.597106,-7.85429 0.886201,-6.2045 3.226225,-12.02829 5.333326,-17.872044 1.155769,-3.270733 2.522557,-6.505233 3.07221,-9.948914 0.158627,-1.066385 -0.0077,-2.634966 -1.273282,-2.912841 -1.120969,-0.172139 -2.068461,0.644154 -3.060702,1.039794 -1.95439,1.07825 -3.358279,2.890992 -4.699219,4.626953 -0.02681,-1.852333 -0.259626,-4.047333 -1.900011,-5.205256 -1.205604,-0.808046 -2.802124,-0.500252 -3.974142,0.215593 -2.065386,0.88027 -3.850762,2.316197 -5.233788,4.07745 -0.809738,0.966952 -1.513783,2.015741 -2.175262,3.087994 0.29066,-3.276315 0.389954,-6.690213 -0.685547,-9.84375 -0.516409,-1.214395 -1.156388,-2.545653 -2.363281,-3.197265 -0.603489,-0.235936 -1.265026,-0.317839 -1.910157,-0.28125 z m 14.732422,20.541015 c -1.14022,5.309101 -2.739616,10.555561 -4.653176,15.609611 -0.940844,2.48688 -1.962449,4.99359 -3.196434,7.32398 0.845085,-6.39564 2.948257,-12.56368 5.507808,-18.46209 0.764071,-1.72683 1.583444,-3.429443 2.466802,-5.098454 -0.04167,0.208985 -0.08333,0.417969 -0.125,0.626953 z m -14.642579,8.091801 c -0.935959,3.2661 -1.952451,6.51141 -3.11914,9.70312 0.991087,-3.50657 2.093464,-6.98228 3.318359,-10.41406 -0.06641,0.23698 -0.132812,0.47396 -0.199219,0.71094 z"
       sodipodi:nodetypes="cccccccccccccccccccccccccccccccccccccccccccccccccccccccccccccccccccccccccccccccccccccccc" />
  </g>
</svg>